#!OML:ASF E:\Style4\Style4.ASF
:FULLY-SPECIFIED
:DEGREES
1279
root -0.698935 18.0793 -2.22206 1.34021 1.73262 2.01767
lowerback 6.37062 2.15825 0.939205
upperback 2.10678 2.9277 -0.0722761
thorax -1.34655 1.46271 -0.815854
lowerneck 0.600238 -4.89051 -5.65763
upperneck 6.29582 -6.69388 4.33332
head 2.27541 -3.37235 2.2393
rclavicle 2.04748e-014 1.59028e-015
rhumerus 28.9741 -17.9865 -16.5832
rradius 52.7111
rwrist -16.7637
rhand -23.1522 13.1498
rfingers 7.12502
rthumb 3.29611 -16.8045
lclavicle 2.04748e-014 1.59028e-015
lhumerus 19.7 11.5873 22.3111
lradius 71.574
lwrist 33.0415
lhand -13.3585 26.0947
lfingers 7.12502
lthumb 12.7476 55.6856
rfemur -10.4183 2.45176 18.2186
rtibia 23.6622
rfoot -14.092 -14.9675
rtoes -7.04221
lfemur -7.72233 -2.45028 -19.7275
ltibia 20.8429
lfoot -13.931 11.7437
ltoes -16.8209
1280
root -0.699717 18.0853 -2.21695 1.42664 1.85504 1.9512
lowerback 6.23126 2.14187 1.0261
upperback 2.10192 2.91022 -0.0570537
thorax -1.27092 1.45465 -0.841613
lowerneck 0.463749 -4.95 -5.59587
upperneck 6.29531 -6.77039 4.37714
head 2.30346 -3.40657 2.23742
rclavicle -5.61567e-015 9.93923e-015
rhumerus 27.396 -16.8794 -16.1682
rradius 54.9975
rwrist -17.7311
rhand -23.2222 13.6089
rfingers 7.12502
rthumb 3.22852 -16.3464
lclavicle -5.61567e-015 9.93923e-015
lhumerus 18.5096 10.5009 22.1773
lradius 73.5158
lwrist 33.1927
lhand -13.3833 25.6075
lfingers 7.12502
lthumb 12.7237 55.1999
rfemur -10.3409 2.46698 18.2942
rtibia 23.4178
rfoot -13.9834 -15.0795
rtoes -7.29123
lfemur -7.87216 -2.50295 -19.6338
ltibia 20.9428
lfoot -13.9296 11.6172
ltoes -16.4663
1281
root -0.701378 18.0903 -2.21335 1.49393 1.96455 1.91939
lowerback 6.17686 2.10545 1.04505
upperback 2.06998 2.86294 -0.0365083
thorax -1.27468 1.43089 -0.826361
lowerneck 0.475445 -4.97789 -5.56023
upperneck 6.15207 -6.80812 4.42532
head 2.25665 -3.42351 2.24714
rclavicle 2.97183e-014 3.97569e-016
rhumerus 25.7883 -15.6309 -15.8557
rradius 57.5414
rwrist -18.7297
rhand -23.7658 13.989
rfingers 7.12502
rthumb 2.70351 -15.9736
lclavicle 2.97183e-014 3.97569e-016
lhumerus 17.3273 9.43642 22.1475
lradius 75.4085
lwrist 33.3888
lhand -13.3492 25.0489
lfingers 7.12502
lthumb 12.7566 54.6392
rfemur -10.2713 2.46391 18.3387
rtibia 23.2161
rfoot -13.9063 -15.1913
rtoes -7.4963
lfemur -7.97006 -2.53271 -19.5707
ltibia 20.9668
lfoot -13.821 11.4765
ltoes -16.3798
1282
root -0.702172 18.095 -2.20733 1.56278 2.05764 1.97831
lowerback 6.12805 2.07324 0.980285
upperback 2.03964 2.81565 -0.0552588
thorax -1.28195 1.40709 -0.804905
lowerneck 0.478528 -4.99557 -5.52641
upperneck 6.0317 -6.83331 4.49292
head 2.21935 -3.43388 2.26368
rclavicle 2.71341e-014 -9.14409e-015
rhumerus 24.1497 -14.3815 -15.709
rradius 60.1561
rwrist -19.5973
rhand -24.4207 14.3363
rfingers 7.12502
rthumb 2.07105 -15.6334
lclavicle 2.71341e-014 -9.14409e-015
lhumerus 15.9996 8.36056 22.1119
lradius 77.4699
lwrist 33.6214
lhand -13.2813 24.6047
lfingers 7.12502
lthumb 12.822 54.1909
rfemur -10.2269 2.43362 18.2688
rtibia 23.0869
rfoot -13.8907 -15.2322
rtoes -7.45815
lfemur -8.01273 -2.53875 -19.617
ltibia 20.9046
lfoot -13.6225 11.3809
ltoes -16.548
1283
root -0.701348 18.0994 -2.19843 1.61475 2.1389 2.19703
lowerback 6.05238 2.03847 0.756634
upperback 2.03998 2.75459 -0.118609
thorax -1.24828 1.37672 -0.737689
lowerneck 0.507565 -4.99666 -5.46005
upperneck 5.84575 -6.83503 4.54295
head 2.15215 -3.43253 2.27026
rclavicle 1.4561e-014 7.95139e-016
rhumerus 22.6026 -13.2754 -15.7573
rradius 62.7611
rwrist -20.3472
rhand -24.5774 14.5572
rfingers 7.12502
rthumb 1.9197 -15.4139
lclavicle 1.4561e-014 7.95139e-016
lhumerus 14.5012 7.37851 22.2013
lradius 79.674
lwrist 33.8521
lhand -13.0442 24.2608
lfingers 7.12502
lthumb 13.0505 53.8325
rfemur -10.1687 2.362 18.0142
rtibia 22.9945
rfoot -13.8657 -15.2762
rtoes -7.64692
lfemur -7.97166 -2.55039 -19.8584
ltibia 20.8029
lfoot -13.4301 11.2964
ltoes -16.9928
1284
root -0.702026 18.1045 -2.19245 1.67099 2.17507 2.38713
lowerback 6.03683 2.01473 0.510618
upperback 2.02471 2.70823 -0.141676
thorax -1.2665 1.35315 -0.620569
lowerneck 0.501294 -5.00585 -5.42988
upperneck 5.67544 -6.84294 4.54042
head 2.09609 -3.43574 2.26477
rclavicle -6.57977e-014 1.31198e-014
rhumerus 21.1475 -12.2602 -15.9509
rradius 65.3478
rwrist -20.9599
rhand -24.3892 14.6493
rfingers 7.12502
rthumb 2.10151 -15.3201
lclavicle -6.57977e-014 1.31198e-014
lhumerus 13.0003 6.3411 22.3788
lradius 81.83
lwrist 34.0356
lhand -12.7109 23.988
lfingers 7.12502
lthumb 13.3719 53.5389
rfemur -10.1279 2.37378 17.7947
rtibia 22.8745
rfoot -13.8058 -15.3305
rtoes -7.79267
lfemur -7.94965 -2.56129 -20.0658
ltibia 20.7225
lfoot -13.2366 11.2997
ltoes -17.7657
1285
root -0.704534 18.1099 -2.18939 1.72757 2.22971 2.45184
lowerback 6.06389 1.99316 0.378635
upperback 2.00017 2.67215 -0.127652
thorax -1.31401 1.33467 -0.531687
lowerneck 0.546403 -5.01335 -5.52321
upperneck 5.45361 -6.85451 4.66169
head 2.02568 -3.44171 2.32417
rclavicle -1.79403e-014 1.31198e-014
rhumerus 19.6111 -11.2941 -16.2275
rradius 68.0594
rwrist -21.5363
rhand -24.153 14.7499
rfingers 7.12502
rthumb 2.32956 -15.2172
lclavicle -1.79403e-014 1.31198e-014
lhumerus 11.5237 5.16243 22.5462
lradius 83.9934
lwrist 34.1798
lhand -12.6604 23.7087
lfingers 7.12502
lthumb 13.4205 53.2564
rfemur -10.1008 2.4177 17.7314
rtibia 22.749
rfoot -13.7391 -15.4283
rtoes -7.86728
lfemur -7.99059 -2.5899 -20.1091
ltibia 20.6905
lfoot -13.1217 11.2358
ltoes -18.0186
1286
root -0.705562 18.1132 -2.1868 1.77551 2.27408 2.351
lowerback 6.12115 1.97247 0.429268
upperback 1.96769 2.64899 -0.0613949
thorax -1.38034 1.32265 -0.493449
lowerneck 0.556713 -5.00721 -5.75286
upperneck 5.31219 -6.8514 4.87519
head 1.99764 -3.44118 2.43808
rclavicle 4.01048e-014 0
rhumerus 18.0405 -10.2692 -16.5219
rradius 70.8055
rwrist -22.0716
rhand -24.087 15.0161
rfingers 7.12502
rthumb 2.39329 -14.9502
lclavicle 4.01048e-014 0
lhumerus 10.0071 3.95986 22.8208
lradius 86.2148
lwrist 34.4825
lhand -12.8189 23.7399
lfingers 7.12502
lthumb 13.2678 53.2976
rfemur -10.0594 2.43795 17.8477
rtibia 22.5976
rfoot -13.6771 -15.4674
rtoes -7.92877
lfemur -8.07314 -2.64073 -19.9614
ltibia 20.7395
lfoot -13.0974 11.0988
ltoes -17.6099
